# xmcd
#
# Track frame offsets:
#	150
#	17718
#	37916
#	54302
#	66636
#	81359
#	91534
#	107213
#	122362
#	135782
#
# Disc length: 1955 seconds
#
# Revision: 1
# Processed by: cddbd v1.5.2PL0 Copyright (c) Steve Scherf et al.
# Submitted via: audiograbber 1.83.01
#
DISCID=7307a10a
DTITLE=Sims Records - Compilation Volume 4
DYEAR=1900
DGENRE=
TTITLE0=Carl and Irma Brown - I'm Back Here Tonight
TTITLE1=Patricia Hebb - Seven Times He Bled
TTITLE2=Marion Kraus - In God's Waiting Room
TTITLE3=Debra Kay Evans - He Walks On The Water With Me
TTITLE4=Rhyonda Lytal and Carolyn Saddler - Shine On
TTITLE5=Ernie Couch - That's Enough
TTITLE6=Deborah Dunmire - Don't Make It Too Easy
TTITLE7=Joyce Evelyn Tussey - Silver And Gold
TTITLE8=Stroupe Mountain Singers - Gather Together
TTITLE9=Big Jim - Holy Ghost Heart
EXTD=
EXTT0=
EXTT1=
EXTT2=
EXTT3=
EXTT4=
EXTT5=
EXTT6=
EXTT7=
EXTT8=
EXTT9=
PLAYORDER=
